<?xml version="1.0" encoding="UTF-8" standalone="no"?>
<svg
   id="svg"
   width="400"
   height="387.83584292884564"
   viewBox="0, 0, 400,387.83584292884564"
   version="1.1"
   sodipodi:docname="vectorLogo_TExt.svg"
   inkscape:version="1.2.2 (732a01da63, 2022-12-09)"
   xml:space="preserve"
   xmlns:inkscape="http://www.inkscape.org/namespaces/inkscape"
   xmlns:sodipodi="http://sodipodi.sourceforge.net/DTD/sodipodi-0.dtd"
   xmlns="http://www.w3.org/2000/svg"
   xmlns:svg="http://www.w3.org/2000/svg"><defs
     id="defs7" /><sodipodi:namedview
     id="namedview5"
     pagecolor="#ffffff"
     bordercolor="#000000"
     borderopacity="0.25"
     inkscape:showpageshadow="2"
     inkscape:pageopacity="0.0"
     inkscape:pagecheckerboard="0"
     inkscape:deskcolor="#d1d1d1"
     showgrid="false"
     inkscape:zoom="2.1375023"
     inkscape:cx="125.6139"
     inkscape:cy="194.15184"
     inkscape:window-width="1920"
     inkscape:window-height="1009"
     inkscape:window-x="1912"
     inkscape:window-y="-8"
     inkscape:window-maximized="1"
     inkscape:current-layer="svg" /><g
     id="svgg" /><path
     style="fill:#b0b0b0;stroke-width:0.096;fill-opacity:1"
     d="m 178.25951,241.03412 c -3.72382,-0.65569 -6.39306,-3.12293 -7.30013,-6.74768 -0.17485,-0.69873 -0.20989,-1.10418 -0.20549,-2.37833 0.005,-1.33156 0.0379,-1.65826 0.25006,-2.45448 0.85973,-3.22615 3.22432,-5.51492 6.55271,-6.34262 1.00423,-0.24973 3.01708,-0.34011 4.08779,-0.18356 1.74759,0.25554 3.46291,1.00319 4.45198,1.94048 l 0.58023,0.54986 -1.41008,1.41484 -1.41009,1.41484 -0.42925,-0.39568 c -0.88638,-0.81703 -2.15336,-1.23418 -3.47058,-1.14267 -2.2276,0.15477 -3.90381,1.56865 -4.4661,3.76719 -0.49705,1.94346 0.0185,4.14615 1.26728,5.41481 1.78905,1.81751 4.84024,1.90066 6.65806,0.18144 l 0.52548,-0.49698 0.59965,0.56189 c 0.3298,0.30903 0.98153,0.92545 1.44828,1.36981 l 0.84865,0.80794 -0.41665,0.42792 c -0.92901,0.95414 -2.5696,1.84661 -4.02848,2.19143 -0.93401,0.22077 -3.14278,0.27396 -4.13332,0.0996 z m 79.64548,-0.005 c -0.93915,-0.1659 -2.30668,-0.63513 -3.02033,-1.03636 -1.76277,-0.99106 -3.17127,-2.57383 -3.84492,-4.32067 -0.57112,-1.48095 -0.61948,-1.78112 -0.61431,-3.81224 0.005,-1.76405 0.0201,-1.92183 0.2698,-2.736 0.68161,-2.22215 2.08901,-3.99773 4.02797,-5.08168 0.8237,-0.46049 2.4435,-0.98149 3.47346,-1.11723 1.28902,-0.16988 3.238,-0.067 4.38776,0.23167 3.28977,0.85452 5.54233,3.04004 6.39068,6.20054 0.21775,0.81124 0.24714,1.10958 0.2512,2.5507 0.003,1.23211 -0.0355,1.79048 -0.15885,2.27878 -0.8706,3.44483 -3.18197,5.78373 -6.58738,6.66586 -1.1702,0.30312 -3.37668,0.38831 -4.57508,0.17663 z m 2.95757,-3.83832 c 2.44877,-0.5189 4.04428,-2.82423 3.88304,-5.61052 -0.14752,-2.5491 -1.61184,-4.37799 -3.89227,-4.86131 -1.17947,-0.24998 -2.14601,-0.13061 -3.26362,0.4031 -1.73009,0.82618 -2.70505,2.53934 -2.70505,4.75322 0,1.15067 0.12038,1.74904 0.5331,2.64968 0.95062,2.07452 3.15106,3.15188 5.4448,2.66583 z m 46.7261,3.82106 c -1.98976,-0.31338 -3.63038,-1.02442 -4.7545,-2.0606 l -0.42893,-0.39537 1.35651,-1.42987 1.3565,-1.42987 0.51305,0.48522 c 0.31565,0.29854 0.83252,0.63851 1.34347,0.88368 0.72004,0.3455 0.937,0.40406 1.63205,0.44054 1.63703,0.0859 2.49883,-0.42461 2.68531,-1.59079 0.0443,-0.27733 0.008,-0.5006 -0.133,-0.81962 -0.28669,-0.64808 -0.91741,-1.02041 -2.79086,-1.64748 -2.69913,-0.90345 -3.78648,-1.56948 -4.49554,-2.75363 -0.59453,-0.9929 -0.76611,-2.45189 -0.45117,-3.83655 0.19034,-0.83685 0.88222,-1.91378 1.60228,-2.49398 0.62028,-0.49979 1.84269,-1.08656 2.71916,-1.30523 0.9484,-0.23661 3.40188,-0.23889 4.26167,-0.004 1.06964,0.29228 1.89621,0.64589 2.61729,1.11968 1.24238,0.81629 1.26278,0.64372 -0.2669,2.25828 l -1.32157,1.39489 -0.42516,-0.39191 c -0.23385,-0.21554 -0.71374,-0.52861 -1.06642,-0.6957 -0.599,-0.28378 -0.71079,-0.30379 -1.69724,-0.30379 -0.93703,0 -1.10101,0.0258 -1.45548,0.22888 -0.56217,0.32211 -0.82881,0.7208 -0.87164,1.30327 -0.0737,1.00259 0.36588,1.33542 2.97213,2.25037 1.03371,0.3629 2.15272,0.8051 2.48667,0.98265 0.9284,0.49361 1.74507,1.31198 2.17268,2.17719 l 0.35964,0.72768 v 1.25298 c 0,1.34898 -0.11622,1.87945 -0.60048,2.74098 -0.82656,1.4705 -2.38492,2.48955 -4.34352,2.84034 -0.66331,0.11881 -2.40979,0.16089 -2.976,0.0717 z m -237.9549,-0.43975 c 0.0273,-0.066 0.28637,-0.6816 0.575709,-1.368 0.289338,-0.6864 1.152602,-2.7384 1.918363,-4.56 0.765761,-1.8216 2.028986,-4.824 2.807167,-6.672 0.778179,-1.848 1.53137,-3.6408 1.673758,-3.984 l 0.258884,-0.624 2.063723,-0.0258 2.063723,-0.0258 3.086702,7.41783 c 1.697687,4.07979 3.323674,7.99097 3.613304,8.69149 l 0.5266,1.27367 -2.354429,-0.0257 -2.354428,-0.0257 -0.660197,-1.68 -0.660199,-1.68 -3.35844,-0.0252 -3.358441,-0.0252 -0.284278,0.74522 c -0.156352,0.40987 -0.447141,1.18802 -0.646195,1.72922 l -0.361918,0.984 h -2.299524 c -1.802092,0 -2.288785,-0.026 -2.249884,-0.12 z m 11.256608,-7.056 c -0.07138,-0.198 -0.506315,-1.3968 -0.966528,-2.664 -0.460212,-1.2672 -0.881186,-2.42815 -0.935497,-2.57988 -0.07115,-0.19878 -0.118845,-0.23903 -0.170658,-0.144 -0.08135,0.1492 -2.109022,5.63137 -2.109022,5.70213 0,0.0252 0.970084,0.0457 2.155741,0.0457 h 2.155742 z m 14.442294,-1.512 v -8.688 h 3.701611 c 3.647647,0 4.462877,0.0505 5.650207,0.35016 1.87596,0.47341 3.30395,1.83795 3.71395,3.54891 0.14579,0.6084 0.14437,2.25517 -0.002,2.86887 -0.37502,1.56732 -1.54717,2.82864 -3.21042,3.45469 -1.04933,0.39497 -2.02349,0.54592 -3.87688,0.60076 l -1.752002,0.0518 v 3.25038 3.25039 h -2.111995 -2.112 v -8.688 z m 7.465358,-1.44117 c 0.5601,-0.16743 1.1023,-0.59025 1.34017,-1.04508 0.20232,-0.38686 0.20507,-1.35543 0.005,-1.73798 -0.20488,-0.39159 -0.42801,-0.57837 -0.98996,-0.82866 -0.40991,-0.18258 -0.6945,-0.21836 -2.0365,-0.25614 l -1.560002,-0.0439 v 2.09141 2.0914 l 1.368002,-0.06 c 0.78909,-0.0346 1.58186,-0.12393 1.87336,-0.21106 z m 14.42264,1.43472 v -8.69445 l 4.104,0.0389 c 4.60361,0.0436 4.91686,0.08 6.312,0.73345 0.99696,0.46692 1.74188,1.14835 2.18434,1.99817 0.42141,0.80939 0.55166,1.4163 0.55166,2.57038 0,1.15106 -0.13022,1.76091 -0.54696,2.56144 -1.04491,2.00719 -3.33911,2.95532 -7.15704,2.95777 l -1.224,7.9e-4 v 3.264 3.264 h -2.112 -2.112 z m 7.46972,-1.43603 c 0.61152,-0.18278 1.21216,-0.69463 1.36751,-1.16535 0.0616,-0.18654 0.0949,-0.60673 0.0741,-0.93375 -0.0853,-1.33998 -0.96122,-1.78642 -3.50493,-1.78642 h -1.18237 v 2.07895 2.07893 l 1.368,-0.06 c 0.7951,-0.0349 1.58147,-0.12381 1.87772,-0.21237 z m 14.41828,1.44248 v -8.688 h 2.112 2.112 v 6.816 6.816 h 3.36 3.36 v 1.872 1.872 h -5.472 -5.472 z m 18.47622,8.568 c -0.0252,-0.066 -0.0346,-3.9648 -0.021,-8.664 l 0.0248,-8.544 2.136,-0.0258 2.136,-0.0259 v 8.68985 8.68983 h -2.11501 c -1.6036,0 -2.12607,-0.029 -2.16077,-0.12 z m 34.70778,0.0382 c 0,-0.0814 0.47875,-1.22905 5.18296,-12.42403 l 2.04801,-4.87383 2.06299,0.0258 2.063,0.0258 3.53743,8.496 c 1.94559,4.6728 3.56198,8.5716 3.59199,8.664 0.051,0.15689 -0.0999,0.168 -2.28083,0.168 h -2.33539 l -0.67108,-1.72668 -0.67108,-1.72667 -3.3625,-0.001 -3.36252,-10e-4 -0.62884,1.704 -0.62885,1.704 -2.27264,0.0257 c -1.27995,0.0145 -2.27265,-0.0115 -2.27265,-0.0595 z m 11.328,-6.7785 c 0,-0.0715 -2.01992,-5.64437 -2.08261,-5.74582 -0.0314,-0.0508 -0.17524,0.22675 -0.3196,0.61685 -0.14436,0.3901 -0.50167,1.35727 -0.79403,2.14927 -0.29235,0.792 -0.66371,1.7964 -0.82524,2.232 l -0.29369,0.792 h 2.15759 c 1.18667,0 2.15758,-0.0199 2.15758,-0.0443 z m 16.992,-0.0517 v -6.912 h -2.448 -2.448 v -1.776 -1.776 h 7.008 7.008 v 1.776 1.776 h -2.448 -2.448 v 6.912 6.912 h -2.112 -2.112 z m 16.608,-1.776 v -8.688 h 2.112 2.112 v 8.688 8.688 h -2.112 -2.112 z m 41.056,8.624 c -0.0352,-0.0352 -0.064,-3.9448 -0.064,-8.688 v -8.624 h 2.43051 2.43051 l 3.48367,5.664 c 1.91602,3.1152 3.49686,5.664 3.51298,5.664 0.0161,0 0.005,-2.5488 -0.0251,-5.664 l -0.0544,-5.664 h 2.03091 2.03091 v 8.688 8.688 l -2.376,-0.002 -2.376,-0.002 -3.37983,-5.49399 c -1.8589,-3.02168 -3.44717,-5.58038 -3.5295,-5.68598 -0.13585,-0.17426 -0.14376,0.33354 -0.0856,5.496 l 0.064,5.688 h -2.01452 c -1.10799,0 -2.04332,-0.0288 -2.07852,-0.064 z m -229.887996,-70.208 v -46.656 h 34.607999 34.607997 v 7.872 7.872 H 92.404662 67.204663 v 10.32 10.32 h 23.423999 23.423998 v 7.87181 7.8718 l -23.399998,0.0242 -23.399999,0.0242 -0.02435,12.696 -0.02435,12.696 h 26.064351 26.064346 v 7.872 7.872 H 83.860663 48.388664 Z m 87.071996,-0.004 v -46.65932 l 23.304,0.0345 c 17.15365,0.0254 23.67138,0.0652 24.696,0.15079 8.53979,0.71355 12.50881,1.58329 16.12674,3.53384 5.33442,2.87597 9.39252,8.21413 11.18373,14.71141 1.55504,5.64068 1.25106,12.69901 -0.76966,17.87063 -0.42666,1.09195 -1.32932,2.91696 -1.88363,3.80836 -1.33499,2.14681 -3.58453,4.63151 -5.52735,6.10518 -3.59495,2.7268 -8.20798,4.58719 -13.87383,5.59517 -0.8316,0.14795 -1.51117,0.2925 -1.51015,0.32123 0.001,0.0287 0.2926,0.22125 0.648,0.42783 1.94806,1.13234 4.68905,3.09377 6.50215,4.65286 3.37459,2.90182 6.25118,6.50335 10.85894,13.59554 1.29233,1.98915 14.05306,22.38168 14.05306,22.45776 0,0.0298 -5.0436,0.0526 -11.208,0.0507 l -11.208,-0.004 -1.71374,-2.56442 c -11.75427,-17.58899 -15.0684,-22.4995 -17.26102,-25.57546 -3.6007,-5.05132 -5.12129,-6.77039 -7.344,-8.30263 -1.64447,-1.13363 -3.14063,-1.71979 -5.3412,-2.09258 -1.9671,-0.33324 -3.68156,-0.43176 -7.53204,-0.43284 l -3.384,-9.5e-4 v 19.488 19.488 h -9.408 -9.408 v -46.65966 z m 42.192,-7.3779 c 4.22845,-0.28239 6.27819,-0.54756 7.54286,-0.97582 1.56458,-0.52981 2.86941,-1.33492 4.03404,-2.48911 2.27655,-2.25612 3.25344,-5.05781 3.13575,-8.99317 -0.065,-2.17374 -0.39373,-3.60454 -1.187,-5.16643 -1.44859,-2.85218 -4.1866,-4.76965 -7.87742,-5.51669 -1.52606,-0.30888 -5.04257,-0.38603 -17.67223,-0.38771 l -11.352,-0.002 v 11.86594 11.86593 l 10.92,-0.0494 c 6.12174,-0.0277 11.59492,-0.0945 12.456,-0.15201 z m 51.408,7.38156 v -46.656 h 9.408 9.408 v 46.656 46.656 h -9.408 -9.408 z m 36.768,0 v -46.656 l 34.584,-10e-6 34.584,-1e-5 -0.0251,7.87201 -0.0251,7.87201 h -25.1509 -25.15089 v 10.32 10.32 h 23.424 23.424 v 7.872 7.872 h -23.424 -23.424 v 12.72 12.72 h 26.064 26.064 v 7.872 7.872 h -35.472 -35.472 z"
     id="path3046" /></svg>
